<svg width="1921" height="1212" xmlns="http://www.w3.org/2000/svg" xmlns:xlink="http://www.w3.org/1999/xlink" xml:space="preserve" overflow="hidden"><defs><clipPath id="clip0"><rect x="3828" y="112" width="1921" height="1212"/></clipPath><clipPath id="clip1"><rect x="4074" y="291" width="1591" height="793"/></clipPath><clipPath id="clip2"><rect x="4074" y="291" width="1591" height="793"/></clipPath><clipPath id="clip3"><rect x="4074" y="291" width="1591" height="793"/></clipPath><clipPath id="clip4"><rect x="4074" y="291" width="1591" height="793"/></clipPath><clipPath id="clip5"><rect x="4074" y="291" width="1591" height="793"/></clipPath><clipPath id="clip6"><rect x="4074" y="291" width="1591" height="793"/></clipPath></defs><g clip-path="url(#clip0)" transform="translate(-3828 -112)"><rect x="3829" y="113" width="1918" height="1209" fill="#FFFFFF"/><g><path d="M0 0 0.000360892 790" stroke="#000000" stroke-width="3.4375" stroke-linejoin="round" stroke-miterlimit="10" fill="none" fill-rule="evenodd" transform="matrix(1 0 0 -1 4074.5 1081.5)"/></g><g><path d="M0 0 1588 0.000360892" stroke="#000000" stroke-width="3.4375" stroke-linejoin="round" stroke-miterlimit="10" fill="none" fill-rule="evenodd" transform="matrix(-1 0 0 1 5662.5 1081.5)"/></g><g clip-path="url(#clip1)"><path d="M-20591.5 1081.41C-16215.8 1081.41-10381.6 1081.41-7464.46 1081.41-5276.61 1081.41-3909.21 1081.41-3088.77 1081.41-1994.85 1081.41-1484.36 1081.41-900.934 1081.41-317.508 1081.41 47.1309 1081.41 411.773 1081.41 776.412 1081.41 1036.87 1081.41 1286.91 1081.41 1536.95 1081.41 1729.69 1081.41 1912.01 1081.41 2094.33 1081.41 2241.92 1081.41 2380.83 1081.41 2519.74 1081.41 2636.08 1081.41 2745.47 1081.41 2854.86 1081.41 2948.78 1081.41 3037.18 1081.41 3125.58 1081.41 3202.93 1081.41 3275.85 1081.41 3348.78 1081.41 3413.55 1081.41 3474.75 1081.41 3535.95 1081.41 3590.95 1081.41 3643.04 1081.41 3695.14 1081.41 3742.42 1081.41 3787.3 1081.41 3832.18 1081.41 3873.25 1081.41 3912.32 1081.41 3951.38 1081.41 3987.39 1082.27 4021.71 1081.41 4056.03 1080.55 4087.85 1077.23 4118.23 1076.24 4148.62 1075.25 4176.93 1076 4204.03 1075.49 4231.12 1074.98 4256.49 1074.59 4280.8 1073.16 4305.1 1071.74 4327.95 1069.69 4349.88 1066.96 4371.82 1064.24 4392.51 1062.35 4412.39 1056.81 4432.29 1051.27 4451.1 1043.14 4469.22 1033.73 4487.34 1024.33 4504.53 1014.88 4521.11 1000.38 4537.68 985.873 4553.45 966.42 4568.67 946.706 4583.89 926.991 4598.4 906.652 4612.42 882.092 4626.45 857.531 4639.85 825.525 4652.82 799.344 4665.78 773.163 4678.19 747.352 4690.21 725.005 4702.23 702.657 4713.77 675.476 4724.94 665.258 4733.97 657.003 4748.86 677.52 4757.28 663.692 4767.69 646.572 4777.72 590.354 4787.45 562.54 4797.19 534.726 4806.57 519.936 4815.68 496.808 4824.8 473.679 4833.6 440.633 4842.15 423.768 4850.64 407.02 4859.02 402.901 4867.01 395.618 4875.06 388.285 4882.83 381.72 4890.41 379.768 4897.99 377.817 4905.32 375.5 4912.47 383.907 4919.62 392.315 4926.55 412.185 4933.31 430.214 4940.07 448.242 4946.62 461.254 4953.02 492.082 4959.42 522.909 4965.63 564.347 4971.7 615.178 4977.76 666.009 4983.65 727.863 4989.41 797.067 4995.17 866.271 5000.77 983.421 5006.24 1030.4 5009.2 1055.8 5019.43 1074.41 5022.25 1078.96 5026.29 1085.5 5033.64 1080.71 5037.49 1080.95 5042.46 1081.27 5047.29 1080.85 5052.03 1080.86 5056.76 1080.86 5061.38 1080.98 5065.91 1080.96 5070.43 1080.94 5074.84 1080.82 5079.17 1080.74 5083.49 1080.67 5087.71 1080.48 5091.85 1080.52 5095.99 1080.56 5100.03 1080.97 5103.99 1080.99 5107.96 1081.01 5111.83 1080.67 5115.63 1080.66 5119.43 1080.65 5123.14 1080.9 5126.79 1080.91 5130.44 1080.92 5134.01 1080.72 5137.51 1080.72 5141.01 1080.72 5144.44 1080.9 5147.8 1080.89 5151.17 1080.88 5154.46 1080.64 5157.71 1080.66 5160.94 1080.68 5164.11 1081.01 5167.23 1081.03 5170.35 1081.04 5173.4 1080.75 5176.4 1080.72 5179.4 1080.69 5182.35 1080.86 5185.24 1080.86 5188.14 1080.85 5190.97 1080.67 5193.77 1080.68 5196.56 1080.68 5199.3 1080.91 5201.99 1080.9 5204.69 1080.89 5207.33 1080.59 5209.93 1080.59 5212.54 1080.59 5215.09 1080.85 5217.61 1080.9 5220.12 1080.94 5222.59 1080.88 5225.02 1080.86 5227.45 1080.85 5229.84 1080.78 5232.2 1080.79 5234.55 1080.8 5236.86 1080.92 5239.14 1080.92 5241.41 1080.93 5243.65 1080.82 5245.86 1080.82 5248.06 1080.83 5250.23 1080.94 5252.37 1080.95 5254.51 1080.96 5256.61 1080.85 5258.68 1080.86 5260.75 1080.86 5262.79 1080.95 5264.8 1080.98 5266.81 1081 5268.79 1080.98 5270.74 1081 5272.69 1081.02 5275.54 1081.09 5276.5 1081.11" stroke="#4472C4" stroke-width="6.875" stroke-linecap="round" stroke-linejoin="round" stroke-miterlimit="10" fill="none"/></g><g clip-path="url(#clip2)"><path d="M-20591.5 1081.54C-16215.9 1081.54-10381.8 1081.54-7464.68 1081.54-5276.88 1081.54-3909.5 1081.54-3089.08 1081.54-1995.18 1081.54-1484.69 1081.54-901.273 1081.54-317.859 1081.54 46.7734 1081.54 411.408 1081.54 776.041 1081.54 1036.49 1081.54 1286.53 1081.54 1536.56 1081.54 1729.3 1081.54 1911.61 1081.54 2093.93 1081.54 2241.52 1081.54 2380.43 1081.54 2519.34 1081.54 2635.67 1081.54 2745.06 1081.54 2854.46 1081.54 2948.38 1081.54 3036.77 1081.54 3125.17 1081.54 3202.51 1081.54 3275.44 1081.54 3348.37 1081.54 3413.13 1081.54 3474.33 1081.54 3535.53 1081.54 3590.53 1081.54 3642.62 1081.54 3694.71 1081.54 3742 1081.54 3786.87 1081.54 3831.75 1081.54 3872.82 1081.54 3911.89 1081.54 3950.96 1081.54 3986.96 1081.54 4021.28 1081.54 4055.6 1081.54 4087.42 1081.54 4117.8 1081.54 4148.19 1081.54 4176.5 1081.54 4203.6 1081.54 4230.69 1081.54 4256.06 1081.54 4280.37 1081.54 4304.67 1081.54 4327.52 1082.05 4349.45 1081.54 4371.38 1081.02 4392.07 1079.91 4411.96 1078.46 4431.85 1077.01 4450.67 1074.54 4468.79 1072.84 4486.9 1071.14 4504.1 1070.58 4520.67 1068.27 4537.25 1065.95 4553.01 1062.66 4568.23 1058.93 4583.45 1055.2 4597.96 1050.31 4611.99 1045.9 4626.01 1041.49 4639.42 1037.11 4652.38 1032.46 4665.35 1027.81 4677.75 1022.9 4689.78 1018 4701.8 1013.11 4713.33 1007.74 4724.5 1003.07 4735.68 998.4 4746.42 995.262 4756.84 989.975 4767.25 984.688 4777.28 976.86 4787.01 971.348 4795.35 966.629 4807.44 970.698 4815.24 956.9 4819.56 949.269 4837.66 917.647 4841.71 874.626 4850.26 783.753 4858.53 446.827 4866.57 411.663 4874.61 376.5 4882.39 583.406 4889.97 663.646 4897.54 743.886 4904.88 861.532 4912.03 893.103 4917.01 915.11 4928.15 860.428 4932.87 853.067 4934.82 850.007 4950.72 844.898 4952.58 829.747 4958.97 777.465 4965.18 602.093 4971.25 539.374 4975.47 495.704 4984.96 439.965 4988.96 453.432 4994.72 472.774 5000.32 591.482 5005.79 655.421 5011.27 719.361 5016.59 805.475 5021.8 837.069 5023.2 845.54 5035.72 845.029 5037.05 844.984 5042.01 844.816 5046.85 839.664 5051.58 836.06 5054.06 834.173 5063.09 832.461 5065.46 823.361 5069.98 805.979 5074.4 735.754 5078.72 731.77 5083.04 727.786 5087.26 783.049 5091.4 799.458 5095.45 815.492 5099.67 822.183 5103.54 830.221 5107.51 838.447 5111.38 842.9 5115.18 848.815 5118.98 854.729 5122.7 861.436 5126.34 865.707 5129.99 869.977 5133.56 871.56 5137.06 874.439 5140.56 877.318 5143.99 879.687 5147.36 882.98 5150.72 886.272 5154.02 889.487 5157.26 894.195 5160.49 898.902 5163.67 906.274 5166.78 911.224 5169.9 916.173 5172.95 918.374 5175.96 923.893 5178.96 929.411 5181.9 938.208 5184.79 944.333 5187.69 950.458 5190.53 954.011 5193.32 960.643 5196.11 967.274 5198.85 976.893 5201.54 984.123 5204.24 991.353 5206.88 995.134 5209.48 1004.02 5212.09 1012.91 5214.64 1026.64 5217.16 1037.45 5219.67 1048.27 5222.14 1061.56 5224.57 1068.91 5226.85 1075.8 5229.54 1079.7 5231.75 1081.54 5234.1 1083.5 5236.41 1080.77 5238.69 1080.69 5240.97 1080.6 5243.2 1080.95 5245.41 1081.01 5247.62 1081.07 5249.78 1081.04 5251.92 1081.04 5254.06 1081.04 5256.16 1081 5258.23 1080.99 5260.3 1080.98 5262.34 1080.98 5264.35 1080.98 5266.36 1080.99 5268.34 1081.01 5270.29 1081.01 5272.24 1081.01 5274.16 1080.98 5276.05 1080.98 5277.94 1080.99 5279.81 1080.99 5281.65 1081.01 5283.48 1081.03 5285.29 1081.1 5287.08 1081.1 5288.87 1081.1 5290.63 1081.02 5292.36 1081.01 5294.1 1081.01 5296.64 1081.07 5297.5 1081.08" stroke="#ED7D31" stroke-width="6.875" stroke-linecap="round" stroke-linejoin="round" stroke-miterlimit="10" fill="none"/></g><g clip-path="url(#clip3)"><path d="M-20591.5 1081.74C-16215.9 1081.74-10381.7 1081.74-7464.65 1081.74-5276.84 1081.74-3909.46 1081.74-3089.03 1081.74-1995.12 1081.74-1484.63 1081.74-901.219 1081.74-317.803 1081.74 46.832 1081.74 411.467 1081.74 776.102 1081.74 1036.55 1081.74 1286.59 1081.74 1536.63 1081.74 1729.36 1081.74 1911.68 1081.74 2094 1081.74 2241.59 1081.74 2380.5 1081.74 2519.4 1081.74 2635.74 1081.74 2745.13 1081.74 2854.52 1081.74 2948.44 1081.74 3036.84 1081.74 3125.23 1081.74 3202.58 1081.74 3275.51 1081.74 3348.43 1081.74 3413.2 1081.74 3474.4 1081.74 3535.6 1081.74 3590.6 1081.74 3642.69 1081.74 3694.78 1081.74 3742.06 1081.74 3786.94 1081.74 3831.82 1081.74 3872.89 1081.74 3911.96 1081.74 3951.03 1081.74 3987.03 1082.5 4021.35 1081.74 4055.67 1080.98 4087.49 1077.88 4117.87 1077.19 4148.26 1076.49 4176.57 1077.37 4203.67 1077.57 4230.76 1077.77 4256.12 1078.21 4280.44 1078.37 4304.74 1078.52 4327.59 1078.65 4349.53 1078.48 4371.45 1078.31 4392.14 1077.63 4412.03 1077.33 4431.92 1077.04 4450.74 1077.44 4468.86 1076.7 4486.97 1075.97 4504.17 1074.07 4520.74 1072.93 4537.32 1071.78 4553.09 1071.6 4568.3 1069.83 4583.52 1068.05 4598.03 1064.57 4612.06 1062.3 4626.08 1060.03 4639.49 1058.24 4652.45 1056.2 4665.42 1054.15 4677.83 1052.47 4689.85 1050.04 4701.87 1047.62 4713.4 1044.88 4724.58 1041.65 4735.75 1038.41 4746.49 1033.86 4756.91 1030.64 4767.33 1027.43 4777.35 1024.46 4787.08 1022.37 4795.83 1020.49 4807.12 1029.81 4815.31 1018.12 4819.45 1012.21 4837.9 983.333 4841.78 944.332 4850.33 858.373 4858.6 534.228 4866.64 502.364 4874.68 470.5 4882.46 672.757 4890.04 753.148 4897.62 833.539 4904.95 951.957 4912.1 984.71 4916.45 1004.63 4928.83 955.548 4932.94 949.667 4934.47 947.477 4951.2 941.751 4952.65 926.681 4959.04 860.12 4965.26 622.954 4971.32 550.3 4973.91 519.348 4986.58 475.538 4989.04 490.761 4994.79 526.491 5000.39 690.957 5005.87 764.686 5011.34 838.415 5016.66 903.661 5021.87 933.134 5023.39 941.701 5035.68 941.415 5037.12 941.519 5041.94 941.866 5047.06 941.717 5051.66 935.279 5055.53 929.858 5061.84 919.489 5065.54 901.705 5070.06 879.935 5074.47 809.278 5078.79 804.658 5083.12 800.038 5087.34 857.461 5091.47 873.987 5095.38 889.606 5099.87 896.475 5103.62 903.813 5107.58 911.576 5111.46 916.246 5115.25 920.566 5119.05 924.886 5122.77 928.175 5126.42 929.733 5130.06 931.291 5133.63 930.193 5137.13 929.913 5140.63 929.633 5144.06 928.083 5147.43 928.052 5150.79 928.021 5154.09 928.955 5157.33 929.727 5160.56 930.498 5163.74 931.965 5166.85 932.681 5169.97 933.396 5173.03 933.677 5176.03 934.021 5179.03 934.365 5181.97 933.99 5184.87 934.743 5187.76 935.495 5190.6 937.431 5193.39 938.537 5196.18 939.643 5198.92 940.645 5201.62 941.379 5204.31 942.113 5206.96 941.641 5209.56 942.941 5212.16 944.24 5214.71 948.113 5217.23 949.179 5219.75 950.244 5222.21 948.371 5224.64 949.334 5227.08 950.296 5229.47 953.339 5231.82 954.955 5234.17 956.57 5236.49 957.658 5238.76 959.025 5241.04 960.391 5243.28 961.665 5245.48 963.151 5247.69 964.637 5249.86 966.456 5252 967.939 5254.13 969.422 5256.23 970.535 5258.31 972.048 5260.38 973.56 5262.41 975.125 5264.42 977.014 5266.43 978.903 5268.41 981.607 5270.36 983.383 5272.31 985.16 5274.23 986.074 5276.12 987.674 5278.02 989.274 5279.88 991.055 5281.72 992.983 5283.56 994.91 5285.37 997.313 5287.16 999.241 5288.94 1001.17 5290.7 1002.53 5292.44 1004.55 5294.17 1006.57 5295.88 1009.2 5297.57 1011.35 5299.26 1013.51 5300.93 1015.33 5302.57 1017.49 5304.21 1019.64 5305.83 1022.12 5307.43 1024.29 5309.03 1026.47 5310.6 1028.27 5312.16 1030.54 5313.71 1032.81 5315.25 1035.3 5316.76 1037.91 5318.28 1040.52 5319.77 1043.38 5321.25 1046.18 5322.72 1048.98 5324.18 1051.62 5325.62 1054.69 5327.06 1057.76 5328.48 1060.89 5329.88 1064.61 5331.29 1068.33 5332.67 1074.25 5334.04 1077.01 5335.32 1079.62 5336.83 1080.51 5338.09 1081.18 5339.42 1081.9 5340.74 1081.27 5342.04 1081.31 5343.34 1081.36 5344.63 1081.43 5345.9 1081.43 5347.17 1081.44 5348.42 1081.34 5349.66 1081.34 5350.9 1081.34 5352.13 1081.41 5353.34 1081.43 5354.55 1081.44 5355.75 1081.43 5356.93 1081.43 5358.12 1081.43 5359.28 1081.42 5360.44 1081.43 5361.6 1081.43 5362.74 1081.43 5363.87 1081.45 5365 1081.47 5366.12 1081.53 5367.22 1081.52 5368.33 1081.52 5369.95 1081.44 5370.5 1081.43" stroke="#A5A5A5" stroke-width="6.875" stroke-linecap="round" stroke-linejoin="round" stroke-miterlimit="10" fill="none"/></g><g clip-path="url(#clip4)"><path d="M-20591.5 1081.92C-16215.9 1081.92-10381.7 1081.92-7464.66 1081.92-5276.86 1081.92-3909.48 1081.92-3089.05 1081.92-1995.15 1081.92-1484.66 1081.92-901.248 1081.92-317.832 1081.92 46.8008 1081.92 411.438 1081.92 776.068 1081.92 1036.52 1081.92 1286.56 1081.92 1536.59 1081.92 1729.33 1081.92 1911.65 1081.92 2093.96 1081.92 2241.55 1081.92 2380.46 1081.92 2519.37 1081.92 2635.71 1081.92 2745.1 1081.92 2854.49 1081.92 2948.41 1081.92 3036.8 1081.92 3125.2 1081.92 3202.55 1081.92 3275.47 1081.92 3348.4 1081.92 3413.17 1081.92 3474.36 1081.92 3535.56 1081.92 3590.57 1081.92 3642.65 1081.92 3694.75 1081.92 3742.03 1081.92 3786.91 1081.92 3831.79 1081.92 3872.86 1081.92 3911.92 1081.92 3950.99 1081.92 3987 1082.5 4021.31 1081.92 4055.63 1081.34 4087.45 1079.11 4117.84 1078.43 4148.22 1077.75 4176.54 1077.8 4203.63 1077.84 4230.72 1077.87 4256.09 1078.44 4280.4 1078.64 4304.71 1078.85 4327.55 1079.15 4349.49 1079.08 4371.42 1079.01 4392.11 1078.5 4412 1078.21 4431.89 1077.91 4450.7 1077.65 4468.82 1077.32 4486.94 1077 4504.13 1076.85 4520.71 1076.26 4537.28 1075.68 4553.05 1074.97 4568.27 1073.82 4583.49 1072.67 4598 1070.88 4612.02 1069.36 4626.05 1067.84 4639.45 1066.03 4652.41 1064.68 4665.38 1063.34 4677.79 1062.81 4689.81 1061.3 4701.83 1059.79 4713.36 1058.14 4724.54 1055.64 4735.71 1053.14 4746.45 1048.63 4756.87 1046.3 4767.29 1043.96 4777.31 1044.08 4787.05 1041.62 4796.78 1039.15 4806.16 1035.9 4815.28 1031.53 4817.64 1030.39 4839.52 1030.74 4841.74 1015.39 4850.3 956.316 4858.56 735.056 4866.6 677.088 4868.34 664.571 4888.37 655.842 4890 667.584 4897.58 721.963 4904.91 950.889 4912.06 1003.36 4914.06 1018 4931.01 983.043 4932.9 982.43 4934.41 981.938 4951.18 1000.68 4952.61 990.177 4959.01 943.212 4965.22 784.028 4971.29 700.644 4977.35 617.26 4983.24 483.5 4989 489.872 4994.76 496.243 5000.36 663.318 5005.83 738.874 5011.3 814.429 5016.63 902.105 5021.84 943.203 5024.66 965.49 5034.39 982.639 5037.08 985.464 5042.04 990.673 5046.88 979.465 5051.62 974.461 5054.29 971.634 5062.94 966.935 5065.5 955.441 5070.02 935.099 5074.43 862.307 5078.75 852.408 5083.08 842.509 5087.3 881.448 5091.44 896.048 5095.57 910.648 5099.62 929.584 5103.58 940.009 5107.48 950.26 5111.48 954.185 5115.22 958.598 5119.02 963.086 5122.73 965.288 5126.38 966.938 5130.03 968.589 5133.59 968.515 5137.1 968.5 5140.6 968.486 5144.03 967.633 5147.39 966.85 5150.76 966.066 5154.05 963.81 5157.29 963.798 5160.53 963.787 5163.7 966.628 5166.82 966.781 5169.93 966.933 5172.99 964.99 5175.99 964.712 5178.99 964.433 5181.94 964.895 5184.83 965.111 5187.72 965.326 5190.56 965.887 5193.36 966.007 5196.15 966.127 5198.88 965.694 5201.58 965.832 5204.27 965.97 5206.92 966.63 5209.52 966.834 5212.12 967.038 5214.68 966.614 5217.19 967.057 5219.71 967.5 5222.18 969.047 5224.61 969.494 5227.04 969.942 5229.43 969.608 5231.78 969.744 5234.13 969.879 5236.45 969.906 5238.72 970.308 5241 970.71 5243.24 971.496 5245.44 972.158 5247.65 972.82 5249.82 973.714 5251.96 974.279 5254.09 974.844 5256.2 975.025 5258.27 975.552 5260.34 976.078 5262.38 976.619 5264.39 977.435 5266.4 978.251 5268.37 979.805 5270.33 980.449 5272.28 981.091 5274.2 980.787 5276.09 981.294 5277.98 981.801 5279.84 982.566 5281.68 983.49 5283.52 984.413 5285.33 986.197 5287.12 986.836 5288.9 987.475 5290.66 986.658 5292.4 987.327 5294.13 987.996 5295.85 989.74 5297.53 990.852 5299.22 991.963 5300.89 993.382 5302.53 993.996 5304.17 994.609 5305.79 993.906 5307.39 994.535 5308.99 995.163 5310.56 996.891 5312.12 997.768 5313.68 998.646 5315.21 998.947 5316.72 999.799 5318.24 1000.65 5319.74 1001.9 5321.21 1002.88 5322.69 1003.85 5324.14 1004.76 5325.58 1005.65 5327.02 1006.53 5328.44 1007.26 5329.84 1008.18 5331.25 1009.09 5332.63 1010.48 5334 1011.14 5335.36 1011.8 5336.71 1011.14 5338.05 1012.12 5339.38 1013.09 5340.7 1015.76 5342 1016.99 5343.3 1018.22 5344.59 1018.7 5345.86 1019.52 5347.13 1020.34 5348.38 1021.09 5349.62 1021.92 5350.87 1022.75 5352.09 1023.42 5353.3 1024.48 5354.51 1025.53 5355.71 1027.18 5356.89 1028.26 5358.08 1029.34 5359.25 1030.14 5360.4 1030.94 5361.56 1031.74 5362.7 1032.03 5363.83 1033.06 5364.96 1034.09 5366.08 1036.22 5367.18 1037.13 5368.29 1038.04 5369.38 1037.39 5370.46 1038.52 5371.54 1039.65 5372.61 1042.83 5373.67 1043.91 5374.72 1044.98 5375.77 1043.89 5376.8 1044.95 5377.84 1046.01 5378.86 1048.97 5379.87 1050.28 5380.88 1051.58 5381.88 1051.83 5382.88 1052.78 5383.87 1053.74 5384.84 1054.78 5385.81 1056.01 5386.78 1057.23 5387.74 1058.73 5388.69 1060.15 5389.64 1061.56 5390.58 1063.22 5391.51 1064.5 5392.44 1065.78 5393.36 1066.3 5394.28 1067.84 5395.19 1069.38 5396.09 1071.89 5396.98 1073.75 5397.87 1075.6 5398.76 1077.63 5399.63 1078.95 5400.51 1080.26 5401.37 1081.19 5402.23 1081.65 5403.09 1082.12 5403.94 1081.73 5404.78 1081.75 5405.62 1081.76 5406.46 1081.74 5407.28 1081.75 5408.11 1081.75 5408.92 1081.78 5409.73 1081.79 5410.54 1081.79 5411.34 1081.78 5412.14 1081.78 5412.93 1081.78 5413.71 1081.78 5414.49 1081.78 5415.27 1081.78 5416.04 1081.78 5416.81 1081.78 5417.57 1081.78 5418.33 1081.8 5419.08 1081.8 5419.83 1081.8 5420.57 1081.77 5421.31 1081.78 5422.05 1081.79 5423.14 1081.83 5423.5 1081.84" stroke="#FFC000" stroke-width="6.875" stroke-linecap="round" stroke-linejoin="round" stroke-miterlimit="10" fill="none"/></g><g clip-path="url(#clip5)"><path d="M-20591.5 1080.98C-16215.8 1080.98-10381.6 1080.98-7464.52 1080.98-5276.69 1080.98-3909.3 1080.98-3088.87 1080.98-1994.95 1080.98-1484.46 1080.98-901.033 1080.98-317.613 1080.98 47.0254 1080.98 411.664 1080.98 776.301 1080.98 1036.76 1080.98 1286.79 1080.98 1536.83 1080.98 1729.57 1080.98 1911.89 1080.98 2094.21 1080.98 2241.8 1080.98 2380.71 1080.98 2519.62 1080.98 2635.96 1080.98 2745.35 1080.98 2854.74 1080.98 2948.66 1080.98 3037.06 1080.98 3125.46 1080.98 3202.8 1080.98 3275.73 1080.98 3348.66 1080.98 3413.43 1080.98 3474.62 1080.98 3535.82 1080.98 3590.83 1080.98 3642.92 1080.98 3695.01 1080.98 3742.29 1080.98 3787.17 1080.98 3832.05 1080.98 3873.12 1080.98 3912.19 1080.98 3951.26 1080.98 3987.26 1081.5 4021.58 1080.98 4055.9 1080.46 4087.72 1078.31 4118.11 1077.86 4148.49 1077.4 4176.8 1078.19 4203.9 1078.25 4230.99 1078.32 4256.36 1078.12 4280.67 1078.22 4304.97 1078.33 4327.82 1078.91 4349.76 1078.88 4371.69 1078.84 4392.38 1078.22 4412.27 1077.99 4432.15 1077.77 4450.97 1077.78 4469.09 1077.52 4487.21 1077.27 4504.4 1076.78 4520.98 1076.46 4537.55 1076.14 4553.32 1076.55 4568.54 1075.6 4583.76 1074.65 4598.27 1071.99 4612.29 1070.73 4626.32 1069.47 4639.72 1069.04 4652.69 1068.04 4665.65 1067.04 4678.06 1065.84 4690.09 1064.73 4702.11 1063.61 4713.64 1063.46 4724.81 1061.34 4735.99 1059.22 4746.73 1053.91 4757.14 1052.03 4767.56 1050.14 4777.59 1052.25 4787.32 1050 4797.06 1047.76 4806.44 1042.32 4815.55 1038.55 4817.94 1037.57 4839.78 1041.57 4842.02 1027.4 4850.57 973.273 4858.84 767.379 4866.88 713.823 4868.71 701.643 4888.56 694.528 4890.28 706.057 4897.86 756.753 4905.19 969.487 4912.34 1018 4914.49 1032.58 4931.15 997.684 4933.18 997.139 4934.81 996.7 4951.34 1018.05 4952.89 1007.12 4959.29 961.957 4965.5 806.821 4971.56 726.146 4977.62 645.471 4983.52 515.5 4989.28 523.071 4995.03 530.641 5000.63 697.787 5006.11 771.57 5011.58 845.352 5016.9 926.896 5022.11 965.767 5024.9 986.528 5034.71 1001.99 5037.36 1004.79 5042.32 1010.05 5047.16 1001.94 5051.9 997.282 5054.84 994.383 5062.96 988.859 5065.78 976.83 5070.3 957.49 5074.71 890.412 5079.03 881.25 5083.36 872.087 5087.58 908.203 5091.71 921.857 5095.85 935.51 5099.89 953.152 5103.86 963.171 5107.82 973.189 5111.7 977.795 5115.5 981.967 5119.3 986.139 5123.01 986.783 5126.66 988.203 5130.3 989.622 5133.87 990.602 5137.38 990.482 5140.88 990.362 5144.3 988.176 5147.67 987.481 5151.04 986.786 5154.33 986.347 5157.57 986.311 5160.81 986.275 5163.98 987.334 5167.1 987.266 5170.21 987.199 5173.27 986.405 5176.27 985.906 5179.27 985.406 5182.22 984.613 5185.11 984.269 5188 983.926 5190.84 983.846 5193.63 983.845 5196.43 983.845 5199.16 984.33 5201.86 984.267 5204.55 984.202 5207.2 983.311 5209.8 983.461 5212.4 983.61 5214.95 985.311 5217.47 985.166 5219.99 985.02 5222.45 982.351 5224.88 982.59 5227.32 982.828 5229.71 986.202 5232.06 986.596 5234.41 986.99 5236.72 985.299 5239 984.955 5241.28 984.612 5243.52 984.2 5245.72 984.535 5247.93 984.869 5250.1 986.516 5252.23 986.963 5254.37 987.409 5256.47 987.226 5258.55 987.212 5260.62 987.198 5262.65 986.495 5264.66 986.878 5266.67 987.26 5268.65 989.067 5270.6 989.506 5272.55 989.946 5274.47 989.326 5276.37 989.515 5278.26 989.703 5280.12 990.094 5281.96 990.637 5283.8 991.18 5285.61 992.356 5287.4 992.771 5289.18 993.185 5290.94 992.775 5292.68 993.123 5294.41 993.47 5296.12 994.388 5297.81 994.856 5299.5 995.324 5301.17 995.487 5302.81 995.93 5304.45 996.373 5306.07 996.947 5307.67 997.514 5309.27 998.081 5310.84 998.928 5312.4 999.33 5313.96 999.732 5315.49 999.56 5317.01 999.928 5318.52 1000.3 5320.02 1000.98 5321.49 1001.54 5322.97 1002.1 5324.43 1002.8 5325.86 1003.3 5327.3 1003.8 5328.72 1004.07 5330.12 1004.51 5331.53 1004.96 5332.91 1005.4 5334.28 1005.95 5335.64 1006.51 5337 1007.46 5338.33 1007.82 5339.66 1008.18 5340.98 1007.6 5342.28 1008.12 5343.58 1008.64 5344.87 1010.36 5346.14 1010.92 5347.41 1011.48 5348.67 1010.91 5349.9 1011.49 5351.14 1012.08 5352.37 1013.86 5353.58 1014.43 5354.79 1015 5355.99 1014.53 5357.17 1014.92 5358.36 1015.3 5359.53 1016.13 5360.68 1016.73 5361.84 1017.33 5362.98 1018.09 5364.11 1018.53 5365.24 1018.98 5366.36 1018.76 5367.46 1019.41 5368.57 1020.07 5369.66 1021.73 5370.74 1022.46 5371.82 1023.18 5372.89 1023.37 5373.95 1023.78 5375 1024.18 5376.05 1024.38 5377.08 1024.88 5378.12 1025.37 5379.14 1026.18 5380.15 1026.73 5381.16 1027.28 5382.16 1027.58 5383.15 1028.17 5384.14 1028.77 5385.12 1029.77 5386.09 1030.32 5387.06 1030.86 5388.02 1030.9 5388.97 1031.42 5389.92 1031.94 5390.86 1032.71 5391.79 1033.44 5392.72 1034.17 5393.64 1035.33 5394.56 1035.8 5395.46 1036.28 5396.37 1035.75 5397.26 1036.3 5398.15 1036.85 5399.04 1038.51 5399.91 1039.09 5400.79 1039.67 5401.65 1039.27 5402.51 1039.79 5403.37 1040.32 5404.22 1041.68 5405.06 1042.24 5405.9 1042.79 5406.73 1042.52 5407.56 1043.13 5408.38 1043.74 5409.2 1045.13 5410.01 1045.9 5410.82 1046.66 5411.62 1047.24 5412.42 1047.71 5413.21 1048.18 5414 1048.14 5414.78 1048.7 5415.55 1049.26 5416.33 1050.37 5417.09 1051.07 5417.85 1051.77 5418.61 1052.39 5419.36 1052.89 5420.11 1053.38 5420.85 1053.27 5421.59 1054.04 5422.33 1054.8 5423.06 1056.89 5423.78 1057.5 5424.5 1058.11 5425.22 1057.15 5425.93 1057.69 5426.64 1058.24 5427.35 1060.08 5428.04 1060.77 5428.74 1061.47 5429.43 1061.16 5430.12 1061.86 5430.8 1062.56 5431.48 1064.28 5432.16 1065 5432.83 1065.71 5433.5 1065.48 5434.16 1066.15 5434.82 1066.82 5435.48 1068.23 5436.12 1069.03 5436.78 1069.82 5437.42 1070.17 5438.06 1070.94 5438.7 1071.7 5439.33 1072.68 5439.96 1073.61 5440.59 1074.54 5441.21 1075.52 5441.83 1076.51 5442.45 1077.5 5443.06 1078.82 5443.67 1079.56 5444.28 1080.29 5444.88 1080.69 5445.48 1080.91 5446.07 1081.13 5446.67 1080.9 5447.26 1080.9 5447.84 1080.9 5448.43 1080.89 5449.01 1080.89 5449.59 1080.9 5450.16 1080.91 5450.73 1080.92 5451.3 1080.92 5451.86 1080.91 5452.42 1080.91 5452.98 1080.91 5453.54 1080.92 5454.09 1080.92 5454.64 1080.92 5455.19 1080.88 5455.73 1080.89 5456.27 1080.89 5456.81 1080.94 5457.34 1080.94 5457.88 1080.94 5458.41 1080.89 5458.93 1080.89 5459.46 1080.89 5460.24 1080.93 5460.5 1080.94" stroke="#5B9BD5" stroke-width="6.875" stroke-linecap="round" stroke-linejoin="round" stroke-miterlimit="10" fill="none"/></g><g clip-path="url(#clip6)"><path d="M-20591.5 1081.05C-16215.8 1081.05-10381.6 1081.05-7464.49 1081.05-5276.65 1081.05-3909.25 1081.05-3088.81 1081.05-1994.9 1081.05-1484.4 1081.05-900.979 1081.05-317.557 1081.05 47.082 1081.05 411.723 1081.05 776.361 1081.05 1036.82 1081.05 1286.86 1081.05 1536.89 1081.05 1729.63 1081.05 1911.95 1081.05 2094.27 1081.05 2241.86 1081.05 2380.77 1081.05 2519.68 1081.05 2636.02 1081.05 2745.41 1081.05 2854.8 1081.05 2948.73 1081.05 3037.12 1081.05 3125.52 1081.05 3202.87 1081.05 3275.8 1081.05 3348.72 1081.05 3413.49 1081.05 3474.69 1081.05 3535.89 1081.05 3590.9 1081.05 3642.98 1081.05 3695.08 1081.05 3742.36 1081.05 3787.24 1081.05 3832.12 1081.05 3873.19 1081.05 3912.26 1081.05 3951.32 1081.05 3987.33 1081.5 4021.65 1081.05 4055.97 1080.6 4087.79 1078.66 4118.17 1078.35 4148.56 1078.04 4176.87 1079 4203.97 1079.17 4231.06 1079.35 4256.43 1079.45 4280.74 1079.39 4305.04 1079.33 4327.89 1078.95 4349.82 1078.83 4371.76 1078.72 4392.45 1078.71 4412.33 1078.7 4432.22 1078.69 4451.04 1079.03 4469.16 1078.76 4487.28 1078.48 4504.47 1077.4 4521.05 1077.07 4537.62 1076.73 4553.39 1077.4 4568.61 1076.73 4583.83 1076.06 4598.34 1074.03 4612.36 1073.04 4626.39 1072.05 4639.79 1071.58 4652.76 1070.81 4665.72 1070.03 4678.13 1069.39 4690.15 1068.38 4702.17 1067.38 4713.71 1066.6 4724.88 1064.78 4736.06 1062.96 4746.79 1059.17 4757.21 1057.47 4767.63 1055.77 4777.66 1056.58 4787.39 1054.58 4797.13 1052.57 4806.51 1049.4 4815.62 1045.46 4818.38 1044.28 4839.5 1045.83 4842.09 1030.97 4850.64 981.796 4858.91 799.395 4866.95 750.41 4869.13 737.122 4888.29 724.464 4890.35 737.059 4897.93 783.492 4905.26 983.968 4912.41 1029.01 4914.77 1043.86 4931.02 1007.85 4933.25 1007.3 4935.02 1006.86 4951.28 1030.24 4952.96 1018.92 4959.36 975.701 4965.56 825.076 4971.63 747.959 4977.69 670.841 4983.59 548.5 4989.35 556.217 4995.1 563.933 5000.7 723.618 5006.18 794.256 5011.65 864.895 5016.97 942.814 5022.18 980.046 5024.99 1000.14 5034.75 1014.91 5037.43 1017.65 5042.39 1022.73 5047.23 1014.59 5051.96 1010.55 5054.74 1008.19 5063.19 1004.12 5065.84 993.415 5070.37 975.144 5074.78 909.615 5079.1 900.931 5083.43 892.247 5087.65 928.28 5091.79 941.311 5095.92 954.343 5099.96 970.039 5103.93 979.122 5107.89 988.204 5111.77 991.618 5115.57 995.805 5119.37 999.992 5123.08 1002.76 5126.73 1004.24 5130.38 1005.73 5133.94 1004.99 5137.45 1004.73 5140.95 1004.46 5144.38 1003.31 5147.74 1002.66 5151.11 1002.01 5154.4 1000.91 5157.64 1000.83 5160.88 1000.75 5164.05 1002.5 5167.17 1002.2 5170.28 1001.89 5173.34 999.655 5176.34 998.988 5179.34 998.321 5182.29 998.182 5185.18 998.192 5188.07 998.203 5190.91 999.196 5193.7 999.052 5196.5 998.907 5199.23 997.805 5201.93 997.326 5204.62 996.847 5207.27 996.226 5209.87 996.179 5212.47 996.133 5215.03 996.951 5217.54 997.047 5220.06 997.143 5222.53 996.813 5224.96 996.755 5227.39 996.696 5229.78 996.744 5232.13 996.698 5234.48 996.652 5236.8 996.365 5239.07 996.479 5241.35 996.593 5243.59 997.425 5245.79 997.381 5248 997.338 5250.17 996.076 5252.31 996.216 5254.44 996.356 5256.54 998.174 5258.62 998.222 5260.69 998.27 5262.73 996.398 5264.74 996.505 5266.75 996.611 5268.72 998.5 5270.68 998.859 5272.62 999.218 5274.54 998.56 5276.44 998.659 5278.33 998.758 5280.19 999.092 5282.03 999.454 5283.87 999.816 5285.68 1000.77 5287.47 1000.83 5289.25 1000.89 5291.02 999.593 5292.75 999.805 5294.48 1000.02 5296.2 1001.84 5297.89 1002.1 5299.58 1002.36 5301.24 1001.02 5302.88 1001.37 5304.52 1001.72 5306.14 1003.81 5307.74 1004.19 5309.34 1004.57 5310.92 1003.46 5312.47 1003.65 5314.03 1003.84 5315.56 1005.05 5317.08 1005.31 5318.59 1005.57 5320.09 1004.97 5321.56 1005.21 5323.04 1005.45 5324.5 1006.42 5325.94 1006.75 5327.38 1007.09 5328.79 1006.92 5330.2 1007.21 5331.6 1007.49 5332.98 1008.07 5334.35 1008.48 5335.72 1008.88 5337.07 1009.18 5338.4 1009.65 5339.73 1010.12 5341.05 1010.89 5342.35 1011.29 5343.66 1011.69 5344.94 1011.75 5346.21 1012.03 5347.48 1012.32 5348.74 1012.77 5349.98 1013.02 5351.22 1013.26 5352.44 1013.14 5353.65 1013.5 5354.87 1013.86 5356.06 1014.71 5357.25 1015.18 5358.43 1015.64 5359.6 1015.93 5360.76 1016.28 5361.91 1016.62 5363.05 1017.02 5364.18 1017.26 5365.31 1017.49 5366.43 1017.33 5367.54 1017.7 5368.64 1018.07 5369.73 1018.95 5370.81 1019.45 5371.89 1019.95 5372.96 1020.28 5374.02 1020.7 5375.08 1021.12 5376.12 1021.61 5377.16 1021.96 5378.19 1022.3 5379.21 1022.33 5380.22 1022.75 5381.23 1023.17 5382.24 1024.06 5383.23 1024.46 5384.22 1024.86 5385.2 1025.02 5386.17 1025.15 5387.14 1025.28 5388.1 1024.74 5389.04 1025.24 5389.99 1025.75 5390.94 1027.7 5391.87 1028.17 5392.79 1028.63 5393.72 1027.7 5394.63 1028.05 5395.54 1028.39 5396.44 1029.97 5397.33 1030.26 5398.23 1030.54 5399.11 1029.42 5399.98 1029.77 5400.86 1030.11 5401.72 1031.85 5402.59 1032.34 5403.44 1032.82 5404.29 1032.34 5405.13 1032.66 5405.97 1032.99 5406.81 1033.86 5407.63 1034.29 5408.46 1034.72 5409.27 1034.82 5410.08 1035.25 5410.89 1035.69 5411.69 1036.59 5412.49 1036.92 5413.28 1037.26 5414.07 1036.97 5414.85 1037.28 5415.62 1037.6 5416.4 1038.43 5417.16 1038.84 5417.93 1039.25 5418.68 1039.39 5419.43 1039.75 5420.18 1040.11 5420.92 1040.7 5421.66 1041.02 5422.4 1041.34 5423.13 1041.13 5423.85 1041.65 5424.58 1042.17 5425.29 1043.87 5426 1044.16 5426.71 1044.45 5427.42 1043.09 5428.11 1043.39 5428.81 1043.68 5429.5 1045.32 5430.19 1045.94 5430.87 1046.55 5431.55 1046.8 5432.23 1047.08 5432.9 1047.36 5433.57 1047.27 5434.23 1047.61 5434.89 1047.96 5435.55 1048.77 5436.2 1049.16 5436.85 1049.54 5437.49 1049.57 5438.13 1049.92 5438.77 1050.26 5439.4 1050.76 5440.04 1051.22 5440.66 1051.67 5441.29 1052.33 5441.9 1052.65 5442.52 1052.97 5443.13 1052.79 5443.74 1053.15 5444.35 1053.51 5444.95 1054.41 5445.55 1054.81 5446.15 1055.22 5446.74 1055.11 5447.33 1055.55 5447.92 1055.99 5448.5 1057.14 5449.08 1057.46 5449.66 1057.77 5450.23 1057.07 5450.8 1057.45 5451.37 1057.82 5451.93 1059.31 5452.49 1059.73 5453.05 1060.15 5453.61 1059.58 5454.16 1059.96 5454.71 1060.35 5455.26 1061.62 5455.8 1062.05 5456.34 1062.49 5456.88 1062.23 5457.42 1062.57 5457.95 1062.92 5458.48 1063.67 5459.01 1064.13 5459.53 1064.59 5460.05 1064.94 5460.57 1065.33 5461.09 1065.73 5461.6 1066.15 5462.11 1066.51 5462.62 1066.87 5463.13 1067.03 5463.63 1067.52 5464.13 1068 5464.63 1069.02 5465.13 1069.42 5465.62 1069.81 5466.11 1069.48 5466.6 1069.91 5467.09 1070.33 5467.57 1071.52 5468.05 1071.97 5468.53 1072.43 5469.01 1072.13 5469.48 1072.63 5469.95 1073.14 5470.42 1074.4 5470.89 1075.01 5471.36 1075.62 5471.82 1075.74 5472.28 1076.29 5472.74 1076.83 5473.19 1077.65 5473.65 1078.28 5474.1 1078.91 5474.55 1079.62 5475 1080.07 5475.44 1080.53 5475.89 1080.84 5476.33 1080.99 5476.77 1081.14 5477.2 1080.98 5477.64 1080.97 5478.07 1080.97 5478.5 1080.98 5478.93 1080.97 5479.36 1080.97 5479.79 1080.97 5480.21 1080.97 5480.63 1080.98 5481.05 1081 5481.46 1081 5481.88 1081.01 5482.29 1080.99 5482.7 1080.99 5483.11 1080.99 5483.52 1080.99 5483.93 1080.99 5484.33 1080.99 5484.73 1080.99 5485.13 1081 5485.53 1081 5485.93 1081.02 5486.32 1081.01 5486.72 1081.01 5487.11 1081 5487.5 1080.99" stroke="#70AD47" stroke-width="6.875" stroke-linecap="round" stroke-linejoin="round" stroke-miterlimit="10" fill="none"/></g><g><text font-family="Calibri,Calibri_MSFontService,sans-serif" font-weight="400" font-size="55" transform="matrix(1 0 0 1 3995.43 1097)">0</text></g><g><text font-family="Calibri,Calibri_MSFontService,sans-serif" font-weight="400" font-size="55" transform="matrix(1 0 0 1 3995.43 998)">5</text></g><g><text font-family="Calibri,Calibri_MSFontService,sans-serif" font-weight="400" font-size="55" transform="matrix(1 0 0 1 3967.56 899)">10</text></g><g><text font-family="Calibri,Calibri_MSFontService,sans-serif" font-weight="400" font-size="55" transform="matrix(1 0 0 1 3967.56 801)">15</text></g><g><text font-family="Calibri,Calibri_MSFontService,sans-serif" font-weight="400" font-size="55" transform="matrix(1 0 0 1 3967.56 702)">20</text></g><g><text font-family="Calibri,Calibri_MSFontService,sans-serif" font-weight="400" font-size="55" transform="matrix(1 0 0 1 3967.56 603)">25</text></g><g><text font-family="Calibri,Calibri_MSFontService,sans-serif" font-weight="400" font-size="55" transform="matrix(1 0 0 1 3967.56 505)">30</text></g><g><text font-family="Calibri,Calibri_MSFontService,sans-serif" font-weight="400" font-size="55" transform="matrix(1 0 0 1 3967.56 406)">35</text></g><g><text font-family="Calibri,Calibri_MSFontService,sans-serif" font-weight="400" font-size="55" transform="matrix(1 0 0 1 3967.56 307)">40</text></g><g><text font-family="Calibri,Calibri_MSFontService,sans-serif" font-weight="400" font-size="55" transform="matrix(1 0 0 1 5627.46 1168)">0.0</text></g><g><text font-family="Calibri,Calibri_MSFontService,sans-serif" font-weight="400" font-size="55" transform="matrix(1 0 0 1 5362.8 1168)">0.5</text></g><g><text font-family="Calibri,Calibri_MSFontService,sans-serif" font-weight="400" font-size="55" transform="matrix(1 0 0 1 5098.15 1168)">1.0</text></g><g><text font-family="Calibri,Calibri_MSFontService,sans-serif" font-weight="400" font-size="55" transform="matrix(1 0 0 1 4833.49 1168)">1.5</text></g><g><text font-family="Calibri,Calibri_MSFontService,sans-serif" font-weight="400" font-size="55" transform="matrix(1 0 0 1 4568.83 1168)">2.0</text></g><g><text font-family="Calibri,Calibri_MSFontService,sans-serif" font-weight="400" font-size="55" transform="matrix(1 0 0 1 4304.17 1168)">2.5</text></g><g><text font-family="Calibri,Calibri_MSFontService,sans-serif" font-weight="400" font-size="55" transform="matrix(1 0 0 1 4039.51 1168)">3.0</text></g><g><text font-family="Calibri,Calibri_MSFontService,sans-serif" font-weight="400" font-size="55" transform="matrix(6.12323e-17 -1 1 6.12323e-17 3938.66 1050)">Intensity (normalized, arb. units)</text></g><g><text font-family="Calibri,Calibri_MSFontService,sans-serif" font-weight="400" font-size="55" transform="matrix(1 0 0 1 4696.77 1249)">Wavelength (Å)</text></g><g><text font-family="Calibri,Calibri_MSFontService,sans-serif" font-weight="700" font-size="66" transform="matrix(1 0 0 1 4041.32 211)">Unfiltered W anode radiation at different bias voltages</text></g><g><rect x="4190.5" y="338.5" width="262" height="564" stroke="#000000" stroke-width="3.4375" stroke-linejoin="round" stroke-miterlimit="10" fill="#FFFFFF"/></g><g><path d="M4212.5 385.5 4300.5 385.5" stroke="#4472C4" stroke-width="6.875" stroke-linecap="round" stroke-linejoin="round" stroke-miterlimit="10" fill="none" fill-rule="evenodd"/></g><g><text font-family="Calibri,Calibri_MSFontService,sans-serif" font-weight="400" font-size="55" transform="matrix(1 0 0 1 4309.38 401)">10 kV</text></g><g><path d="M4212.5 479.5 4300.5 479.5" stroke="#ED7D31" stroke-width="6.875" stroke-linecap="round" stroke-linejoin="round" stroke-miterlimit="10" fill="none" fill-rule="evenodd"/></g><g><text font-family="Calibri,Calibri_MSFontService,sans-serif" font-weight="400" font-size="55" transform="matrix(1 0 0 1 4309.38 495)">15 kV</text></g><g><path d="M4212.5 573.5 4300.5 573.5" stroke="#A5A5A5" stroke-width="6.875" stroke-linecap="round" stroke-linejoin="round" stroke-miterlimit="10" fill="none" fill-rule="evenodd"/></g><g><text font-family="Calibri,Calibri_MSFontService,sans-serif" font-weight="400" font-size="55" transform="matrix(1 0 0 1 4309.38 589)">20 kV</text></g><g><path d="M4212.5 667.5 4300.5 667.5" stroke="#FFC000" stroke-width="6.875" stroke-linecap="round" stroke-linejoin="round" stroke-miterlimit="10" fill="none" fill-rule="evenodd"/></g><g><text font-family="Calibri,Calibri_MSFontService,sans-serif" font-weight="400" font-size="55" transform="matrix(1 0 0 1 4309.38 683)">25 kV</text></g><g><path d="M4212.5 761.5 4300.5 761.5" stroke="#5B9BD5" stroke-width="6.875" stroke-linecap="round" stroke-linejoin="round" stroke-miterlimit="10" fill="none" fill-rule="evenodd"/></g><g><text font-family="Calibri,Calibri_MSFontService,sans-serif" font-weight="400" font-size="55" transform="matrix(1 0 0 1 4309.38 777)">30 kV</text></g><g><path d="M4212.5 855.5 4300.5 855.5" stroke="#70AD47" stroke-width="6.875" stroke-linecap="round" stroke-linejoin="round" stroke-miterlimit="10" fill="none" fill-rule="evenodd"/></g><g><text font-family="Calibri,Calibri_MSFontService,sans-serif" font-weight="400" font-size="55" transform="matrix(1 0 0 1 4309.38 871)">35 kV</text></g><rect x="3829.5" y="113.5" width="1918" height="1209" stroke="#D9D9D9" stroke-width="3.4375" stroke-linejoin="round" stroke-miterlimit="10" fill="none"/></g></svg>